<?xml version="1.0" standalone="no"?>
<!DOCTYPE svg PUBLIC "-//W3C//DTD SVG 20010904//EN"
 "http://www.w3.org/TR/2001/REC-SVG-20010904/DTD/svg10.dtd">
<svg version="1.0" xmlns="http://www.w3.org/2000/svg"
 width="1445.000000pt" height="1445.000000pt" viewBox="0 0 1445.000000 1445.000000"
 preserveAspectRatio="xMidYMid meet">
<metadata>
Created by potrace 1.14, written by Peter Selinger 2001-2017
</metadata>
<g transform="translate(0.000000,1445.000000) scale(0.100000,-0.100000)"
fill="#000000" stroke="none">
<path d="M8366 14425 c-438 -46 -861 -154 -1246 -320 -127 -54 -363 -175 -469
-240 -198 -119 -3571 -2282 -3665 -2349 -494 -353 -908 -840 -1187 -1396 -202
-404 -325 -821 -386 -1310 -25 -206 -25 -725 0 -925 62 -478 173 -862 365
-1258 74 -155 76 -160 60 -185 -9 -15 -46 -76 -82 -137 -272 -450 -441 -954
-511 -1525 -22 -176 -31 -600 -16 -785 45 -558 188 -1070 437 -1561 296 -583
752 -1122 1289 -1526 631 -473 1381 -773 2185 -874 198 -24 686 -30 896 -10
603 58 1175 236 1674 521 130 75 3592 2278 3705 2358 792 563 1335 1389 1534
2332 188 889 77 1817 -312 2609 l-64 129 57 91 c220 350 386 750 475 1144 148
655 148 1284 0 1897 -125 519 -342 990 -661 1436 -304 424 -598 726 -988 1016
-633 470 -1354 756 -2166 859 -179 22 -738 28 -924 9z m814 -1641 c591 -68
1145 -334 1568 -752 358 -355 608 -790 715 -1247 85 -361 88 -790 7 -1109 -50
-196 -120 -407 -132 -399 -7 3 -86 59 -176 123 -391 278 -800 486 -1232 625
-96 31 -180 58 -186 60 -7 2 -8 26 -2 76 24 207 -39 436 -163 591 -207 259
-548 365 -866 267 -37 -12 -93 -33 -123 -48 -30 -15 -478 -298 -995 -628 -517
-330 -1280 -817 -1695 -1082 -415 -266 -775 -499 -800 -520 -104 -87 -190
-224 -226 -361 -24 -93 -22 -262 4 -362 59 -221 210 -402 417 -503 125 -61
203 -79 355 -79 137 0 223 18 343 72 34 16 363 221 731 456 367 235 705 448
750 473 278 158 637 270 970 304 151 15 515 6 650 -16 709 -114 1305 -468
1731 -1026 309 -405 468 -800 521 -1290 26 -247 8 -563 -46 -795 -120 -512
-431 -992 -850 -1311 -52 -40 -891 -579 -1865 -1198 -1343 -855 -1804 -1144
-1910 -1196 -246 -121 -478 -195 -735 -234 -163 -26 -504 -31 -680 -11 -614
71 -1166 338 -1600 775 -421 423 -680 951 -746 1517 -19 163 -14 526 10 659
29 162 123 536 142 564 2 1 72 -46 156 -107 424 -304 803 -497 1278 -652 l175
-58 -3 -123 c-4 -144 12 -239 57 -353 108 -271 353 -456 653 -496 145 -19 313
11 456 83 41 21 788 497 3117 1985 176 112 344 224 373 249 154 132 241 343
229 562 -14 281 -175 524 -434 654 -70 36 -202 73 -289 81 -130 13 -314 -24
-438 -86 -21 -11 -332 -207 -690 -436 -732 -467 -779 -496 -928 -562 -329
-148 -677 -220 -1063 -220 -435 0 -808 88 -1195 282 -271 135 -473 280 -686
493 -153 153 -233 251 -356 435 -418 630 -527 1423 -291 2130 157 472 485 906
891 1178 300 202 3529 2248 3627 2299 285 147 550 230 859 267 156 19 452 19
616 0z"/>
</g>
</svg>
